<svg width="0" height="0" class="hidden">
  <symbol viewBox="0 0 24 24" xmlns="http://www.w3.org/2000/svg" id="del">
    <circle cx="12" cy="12" fill="#4a4a4a" r="12"/>
    <path d="m12.2650133 11.3533168 5.1428572-5.14285717.8571428.85714285-5.1428571 5.14285712 5.1428571 5.1428572-.8571428.8571428-5.1428572-5.1428571-5.14285711 5.1428571-.85714286-.8571428 5.14285717-5.1428572-5.14285717-5.14285712.85714286-.85714285z" fill="#fff"/>
  </symbol>
  <symbol viewBox="0 0 24 24" xmlns="http://www.w3.org/2000/svg" id="minus">
    <circle cx="12" cy="12" fill="#4a4a4a" r="12"/>
    <path d="m7 11h11v2h-11z" fill="#fff"/>
  </symbol>
  <symbol viewBox="0 0 32 20" xmlns="http://www.w3.org/2000/svg" id="burger">
    <path d="M0 0h32v4H0zm0 8h32v4H0zm0 8h32v4H0z" fill="#4A4A4A"></path>
  </symbol>
  <symbol viewBox="0 0 26 26" xmlns="http://www.w3.org/2000/svg" id="cross">
    <g fill="#4a4a4a">
      <path d="m-3.272078 10.727922h32v4h-32z" transform="matrix(.70710678 .70710678 -.70710678 .70710678 12.727922 -5.272078)"/>
      <path d="m-3.272078 10.727922h32v4h-32z" transform="matrix(.70710678 -.70710678 .70710678 .70710678 -5.272078 12.727922)"/>
    </g>
  </symbol>
  <symbol viewBox="0 0 16 20" xmlns="http://www.w3.org/2000/svg" id="cart">
    <path d="M.5 4.5v15h15v-15zM3 4.111C4.263 2.037 5.976 1 8.138 1s3.874 1.037 5.138 3.111" fill="none" stroke="#4a4a4a"></path>
  </symbol>
  <symbol viewBox="0 0 204 36" xmlns="http://www.w3.org/2000/svg" id="logo">
    <path d="M0 12.41h5.197v9.727H5.3c.517-.849 1.068-1.633 1.584-2.414l5.266-7.313h6.437l-7.677 9.368L19 34.41h-6.127l-5.679-9.5-1.997 2.32v7.18H0v-22zm28.466 10.567c0 4.362 2.106 7.435 5.568 7.435 3.496 0 5.5-3.238 5.5-7.567 0-4-1.97-7.437-5.534-7.437-3.496 0-5.534 3.24-5.534 7.57zM45 22.68c0 7.302-4.549 11.73-11.238 11.73C26.974 34.41 23 29.42 23 23.077 23 16.4 27.38 11.41 34.136 11.41 41.164 11.41 45 16.532 45 22.68zm6 9.054l11.026-15.08v-.132h-9.995V12.41h16.797v2.871L58.04 30.167v.13H69v4.113H51v-2.676zM82.229 12.41v8.454h8.576V12.41H96v22h-5.195v-9.205H82.23v9.205H77v-22h5.229zm28.047 0v13.027c0 3.895 1.515 5.877 4.207 5.877 2.757 0 4.275-1.879 4.275-5.877V12.41H124v12.694c0 6.983-3.62 10.306-9.69 10.306-5.863 0-9.31-3.155-9.31-10.376V12.41h5.276zm26.953 0v8.454h8.576V12.41H151v22h-5.195v-9.205h-8.576v9.205H132v-22h5.229zm34.257 12.633l-1.503-4.668c-.43-1.306-.86-2.936-1.217-4.242h-.072c-.358 1.306-.713 2.969-1.11 4.242l-1.428 4.668h5.33zm-6.118 3.72l-1.718 5.647H158l7.368-22h7.156l7.476 22h-5.868l-1.858-5.647h-6.906zm25.972-6.504h2.124c2.686 0 4.278-1.232 4.278-3.144 0-2.007-1.486-3.012-3.96-3.045-1.31 0-2.052.097-2.442.162v6.027zM186 12.864c1.734-.26 4.314-.454 7.18-.454 3.536 0 6.013.486 7.709 1.718 1.415 1.037 2.194 2.558 2.194 4.568 0 2.785-2.159 4.698-4.208 5.378v.098c1.66.616 2.58 2.072 3.182 4.081.743 2.461 1.486 5.314 1.943 6.157h-5.514c-.39-.648-.956-2.399-1.664-5.087-.637-2.723-1.663-3.466-3.854-3.5h-1.628v8.587H186V12.864zM96.371 7.798h-5.215C91.79 3.408 95.736 0 100.54 0c4.808 0 8.752 3.407 9.385 7.798h-5.213c-.553-1.696-2.203-2.938-4.172-2.938-1.967 0-3.617 1.242-4.17 2.938z" fill="#4A4A4A" fill-rule="evenodd"></path>
  </symbol>
  <symbol viewBox="0 0 444.6 56.1" xmlns="http://www.w3.org/2000/svg" id="carrot">
    <g fill="#9C9B9B">
      <path d="M77.1,10.2c-1-1-1.7-2.2-1.9-3.6V6.4c-0.3-1.9-1.8-3.4-3.3-3.2L9.1,11.7c-1.6,0.2-2.6,2-2.3,4v0.2
          c0.2,1.4-0.1,2.8-0.9,3.9c-2.3,3.6-3.2,8.1-2.5,12.6C4,36.9,6.1,41,9.2,43.9c1,1,1.7,2.2,1.9,3.6l0.2,1.4c0.1,1,0.6,1.9,1.2,2.5
          c0.3,0.3,0.9,0.8,1.8,0.8c0.1,0,0.2,0,0.3,0l62.8-8.5c1-0.1,1.6-0.8,1.8-1.3c0.5-0.8,0.7-1.7,0.5-2.7l-0.2-1.4
          c-0.2-1.3,0.1-2.7,0.9-3.9l0,0c2.3-3.6,3.2-8.1,2.5-12.6C82.3,17.2,80.2,13.1,77.1,10.2z M57.3,30l-0.4-0.1l-4.3,6.6
          c-1.3-3.7-3.4-6.5-7.1-8.2c0.1,0.2,0.1,0.4,0.2,0.7c3,2.5,4.9,5.8,6.6,10.6c5,0.3,6.2,0.5,7.1,3.3l-10.2-0.3
          c-1.5-0.2-2.9-0.4-4.2-0.6c-3,1.7-6.3,2.8-6.3,2.8c-0.6-1.8,0.2-3,1.5-3.5c0.1-0.1,0.3-0.1,0.4-0.2c-8.4-2.1-11.3-5.3-12.2-7.4
          c-1.6,1.2-4.3,1-5.2-1.4c-1-2.7,1.8-4.6,4-4.2c0.2-2.2,1.7-3.8,5.4-5.1c6.2-2.2,12-0.8,16,0.5l1-1.6c-16.7-2.6-13.8-11-13.8-11
          l22.1,9.3c0.6,0.2,1.2,0.4,1.7,0.7l0,0c0,0,0.5,0.3,1,0.6c1.3,0.9,2.3,1.9,2.7,3.1C64.1,27.1,60.5,28.8,57.3,30z"/>
        <path d="M79.2,7.9c-0.5-0.5-0.8-1.1-0.9-1.7V6c-0.5-3.7-3.5-6.3-6.8-5.9L8.7,8.6c-3.3,0.4-5.5,3.8-5,7.5v0.2
          c0.1,0.6-0.1,1.3-0.4,1.9c-2.6,4.2-3.7,9.4-3,14.7c0.7,5.3,3.1,10,6.8,13.4C7.6,46.8,7.9,47.4,8,48l0.2,1.4c0.2,1.7,1,3.2,2.2,4.3
          c1.1,1,2.5,1.6,3.9,1.6c0.2,0,0.5,0,0.7,0l62.8-8.5c1.6-0.2,3.1-1.2,4-2.7c0.9-1.4,1.2-3.1,1-4.8l-0.2-1.4
          c-0.1-0.6,0.1-1.3,0.4-1.9c2.6-4.2,3.7-9.4,3-14.7C85.3,16,82.9,11.3,79.2,7.9z M81.7,35.2c-0.6,0.9-0.8,1.9-0.6,2.9l0.2,1.4
          c0.2,1.3-0.1,2.7-0.7,3.7c-0.7,1.1-1.8,1.8-2.9,2l-62.8,8.5c-1.2,0.2-2.4-0.3-3.4-1.1c-0.9-0.9-1.5-2.1-1.7-3.4l-0.2-1.4
          c-0.1-1-0.6-1.9-1.4-2.6c-3.4-3.1-5.6-7.5-6.3-12.4S2.2,23,4.7,19.1c0.6-0.9,0.8-1.9,0.6-2.9V16c-0.4-2.8,1.3-5.4,3.7-5.7l62.7-8.5
          c0.2,0,0.3,0,0.5,0c2.2,0,4.2,1.9,4.6,4.6v0.2c0.1,1,0.6,1.9,1.4,2.6c3.4,3.1,5.6,7.5,6.3,12.4C85.1,26.4,84.2,31.3,81.7,35.2z"/>
        <path d="M214.8,17.9c-0.6-0.2-0.9-0.1-1.1,0.5c-1.8,4.3-3.5,8.6-5.3,12.9c-0.5,1.2-1,2.4-1.6,3.8
          c-0.2-0.4-0.3-0.7-0.4-0.9c-2.2-5.3-4.4-10.5-6.6-15.8c-0.2-0.6-0.6-0.7-1.1-0.5c-1.6,0.5-3.1,1.2-4.5,2c-0.5,0.3-0.6,0.6-0.4,1.2
          c3.2,7.1,6.3,14.3,9.4,21.4c0.2,0.5,0.2,0.8-0.1,1.3c-1.7,2.9-3.3,5.8-5,8.7c-0.3,0.5-0.2,0.8,0.3,1.1c1.5,0.9,3.1,1.5,4.7,2.1
          c0.7,0.2,1,0.1,1.3-0.6c5-11.3,10.1-22.7,15.1-34c0.3-0.6,0.1-1-0.4-1.3C217.8,19,216.4,18.4,214.8,17.9z"/>
        <path d="M246.7,21.7c0-5.3,0-10.6,0-15.9c0-1.5-1.5-3-3-3s-2.9,0.1-4.4,0s-2.4,0.7-3.2,1.8c-0.4,0.5-0.4,1,0,1.6
          c0.8,1.2,1.7,2.1,3.3,1.9c0.4,0,0.8-0.1,0.8,0.6c0,3,0,6,0,9c0,0.4-0.1,0.6-0.5,0.4c-0.8-0.2-1.6-0.3-2.4-0.4
          c-3.8-0.3-7.4,0.5-10.4,2.9c-3.4,2.7-4.8,6.3-4.7,10.6c0.1,3.7,1.3,7,4.1,9.6c3.8,3.6,10.1,4,14.1,0.9c0.4-0.3,0.7-0.3,1.1,0.1
          c0.6,0.7,1.2,1.4,2.3,1.4c1,0,2.1,0,3.1,0c0.6,0,0.8-0.3,0.6-0.8c-0.6-2.2-0.6-4.4-0.6-6.7C246.7,31,246.7,26.4,246.7,21.7z
          M240.1,36.1c0,0.3,0,0.6-0.3,0.8c-2.2,1.3-6.5,1.6-8.8-0.8c-1-1-1.5-2.3-1.7-3.6c-0.3-2-0.2-4,0.8-5.9c1.1-2.1,2.8-3.1,5.1-3.3
          c1.4-0.1,2.9,0,4.3,0.4c0.5,0.2,0.7,0.4,0.7,1c0,1.9,0,3.8,0,5.7C240,32.3,240,34.2,240.1,36.1z"/>
        <path d="M187.2,17.9c-0.9-0.3-0.9-0.2-1.3,0.6c-1.7,4.1-3.4,8.1-5.1,12.2c-0.6,1.4-1.2,2.8-1.8,4.3
          c-0.2-0.4-0.2-0.5-0.3-0.7c-2.3-5.3-4.5-10.6-6.8-16c-0.2-0.5-0.5-0.7-1-0.6c-1.6,0.5-3.1,1.2-4.6,2c-0.5,0.3-0.6,0.6-0.3,1.1
          c0.6,1.2,1.2,2.5,1.7,3.7c2.7,5.9,5.5,11.8,8.2,17.8c0.2,0.5,0.5,0.7,1.1,0.7c1.3,0,2.6,0,3.9,0c0.6,0,0.9-0.2,1.2-0.7
          c3.3-7.1,6.6-14.3,9.9-21.4c0.3-0.6,0.1-0.9-0.4-1.2C190.2,19.1,188.7,18.4,187.2,17.9z"/>
        <path d="M125.6,23.2c-2.7-1.5-5.5-2.8-8.3-4.2c-1.1-0.6-2.2-1.2-3.1-2.2c-0.9-0.9-1.3-1.9-1.1-3.2
          c0.3-1.7,1.4-2.8,3-3.4c2.9-1,5.7-0.7,8.4,0.6c1,0.5,1.6,1.1,1.4,2.3c0,0.2,0,0.5,0,0.8c-0.2,1.6,0.7,2.6,1.9,3.4
          c0.3,0.2,0.7,0.4,1.1,0.3c1.2-0.3,2.5-2,2.5-3.2c0-0.9,0-1.8,0-2.7c0-0.4-0.1-0.8,0-1.2c0.4-2.1-0.7-3.3-2.4-4.2c0,0,0,0-0.1,0
          c-5.4-2.9-11-3.2-16.6-0.9c-6.6,2.7-7,10.9-4.4,14.8c1.2,1.8,2.9,3.1,4.8,4.2c3.1,1.8,6.5,3.1,9.7,4.7c1,0.5,2,1,2.8,1.8
          c0.9,0.9,1.1,1.9,0.9,3.1c-0.5,1.9-1.8,3-3.6,3.5c-3.2,1-6.4,0.7-9.4-0.7c-1.1-0.5-1.8-1.2-1.5-2.5c0-0.2,0-0.3,0-0.5
          c0.2-1.8-0.9-2.7-2.2-3.6c-0.3-0.2-0.6-0.2-0.9-0.1c-1.3,0.5-2.3,2-2.3,3.3c0,1.7,0,3.4,0,5.1c0,0.8,0.3,1.3,0.9,1.7
          c5.6,3.8,11.7,4.4,18.1,2.8c2.6-0.7,4.7-2.2,6.2-4.5c1-1.6,1.4-3.4,1.5-5.2c0.2-2.7-0.6-5.1-2.7-6.9
          C128.7,25,127.2,24.1,125.6,23.2z"/>
        <path d="M157.4,18.3c-3.8-1.4-7.4-0.9-10.8,1.2c-0.2,0.1-0.5,0.5-0.7,0.4c-0.3-0.1-0.1-0.5-0.1-0.8c0-4.4,0-8.7,0-13.1
          c0-1.5-1.6-3.1-3.1-3.1c-1.6,0-3.1,0-4.7,0c-1.2,0-2.7,1.1-3.1,2.2c-0.1,0.3-0.1,0.5,0,0.8c0.5,1.3,1.9,2.2,3.2,2.2
          c0.9,0,0.9,0,0.9,1c0,5.5,0,11,0,16.5c0,5.6,0,11.2,0,16.7c0,0.7,0.2,0.9,0.9,0.9c1.6,0,3.2,0,4.8,0c1,0,1,0,1-1
          c0-5.4,0-10.8,0-16.2c0-0.7,0.2-1.1,0.8-1.4c1.6-0.9,3.3-1.3,5.2-1.3c2.5,0,4.2,1.4,4.1,4.1c-0.1,5,0,10,0,14.9
          c0,0.6,0.2,0.9,0.8,0.8c1.6,0,3.2,0,4.9,0c0.9,0,0.9,0,0.9-0.9c0-5.1,0-10.2,0-15.3c0-0.7,0-1.4-0.2-2.1
          C161.8,21.8,160.4,19.4,157.4,18.3z"/>
        <path d="M382.4,24.2c-0.6-2.8-2.2-4.9-5-5.9c-1.4-0.5-2.8-0.6-4.2-0.6c-2.5,0.1-4.7,0.8-6.7,2.2
          c-0.1,0-0.1,0.1-0.2,0.1c-0.1,0.1-0.2,0-0.2-0.1s0-0.2,0-0.4c0-4.4,0-8.8,0-13.2c0-0.9-0.3-1.7-0.9-2.3c-0.7-0.7-1.4-1.1-2.5-1.1
          c-1.4,0.1-2.9,0-4.3,0c-0.7,0-1.3,0.2-1.8,0.6c-0.4,0.3-0.7,0.7-1,1.1c-0.5,0.7-0.5,1.1,0,1.8c0.8,1.1,1.8,1.9,3.3,1.8
          c0.6-0.1,0.6,0,0.6,0.6c0,5.6,0,11.2,0,16.8c0,5.6,0,11.3,0,16.9c0,0.6,0,0.6,0.6,0.6c1.8,0,3.6,0,5.3,0c0.7,0,0.7,0,0.7-0.7
          c0-5.6,0-11.2,0-16.7c0-0.4,0.1-0.7,0.5-0.9c1.9-1.1,4-1.6,6.2-1.5c0.8,0.1,1.6,0.3,2.2,0.8c0.9,0.7,1.2,1.7,1.2,2.9
          c0,5.2,0,10.3,0,15.5c0,0.4,0.1,0.5,0.5,0.5c1.8,0,3.6,0,5.4,0c0.6,0,0.6,0,0.6-0.6c0-5.1,0-10.1,0-15.2
          C382.7,26.2,382.7,25.2,382.4,24.2z"/>
        <path d="M351.2,26.9c-0.7-0.7-1.4-1.3-2.2-1.9c-2.5-1.8-5.3-3.1-8-4.4c-1.5-0.7-3-1.4-4.4-2.3c-0.5-0.3-1-0.7-1.5-1.1
          c-2.1-1.8-2-4.7,0.3-6.3c1.1-0.7,2.3-1.1,3.5-1.2c2.6-0.2,5,0.3,7.1,1.8c0.3,0.2,0.4,0.4,0.4,0.7c0,0.8,0,1.7,0,2.5
          c0,0.4,0.1,0.7,0.3,1c0.4,0.7,1,1.3,1.7,1.7c0.5,0.3,0.9,0.3,1.4,0c0.7-0.4,1.2-1,1.7-1.6c0.2-0.4,0.3-0.7,0.3-1.2c0-2,0-4,0-6
          c0-0.3-0.1-0.5-0.3-0.7c-1.4-1.3-3.1-2.3-4.9-3c-3.5-1.2-7.1-1.3-10.8-0.5c-2.1,0.4-3.9,1.3-5.5,2.7c-3.2,2.8-3.8,7.8-2.6,11.3
          c0.7,2,2.2,3.5,3.9,4.7c2.4,1.7,5,2.8,7.7,4c1.8,0.8,3.6,1.5,5.3,2.6c0.6,0.4,1.2,0.8,1.7,1.5c0.8,1.1,0.7,2.8-0.2,4
          c-0.8,1-1.8,1.7-3,2.1c-2,0.7-4.1,0.6-6.2,0.3c-1.6-0.3-3.1-0.9-4.4-1.9c-0.2-0.2-0.3-0.4-0.3-0.6c0-0.8,0-1.6,0-2.5
          c0-0.3-0.1-0.5-0.2-0.8c-0.5-0.8-1.1-1.4-1.9-1.8c-0.4-0.3-0.8-0.3-1.3,0c-0.8,0.5-1.4,1.1-1.8,1.9c-0.1,0.2-0.2,0.5-0.2,0.7
          c0,1,0,2.1,0,3.1c0,1.1,0,2.1,0,3.2c0,0.3,0.1,0.4,0.3,0.6c1.2,0.9,2.5,1.7,3.9,2.3c2.2,1,4.5,1.5,6.8,1.6c2.8,0.2,5.6,0,8.2-1
          c2.8-1,4.9-2.7,6.2-5.4c0.8-1.8,1-3.8,0.9-5.8C353,29.7,352.4,28.2,351.2,26.9z"/>
        <path d="M410.2,20.7c-2.6-2.2-5.6-3.1-9.3-3.1c-0.4,0-1.2,0.1-2,0.2c-3.8,0.7-6.8,2.5-8.9,5.7c-1.9,3-2.4,6.3-1.7,9.7
          c0.8,4.3,3.3,7.4,7.3,9.2c2.9,1.3,5.9,1.5,8.9,0.8c4.1-0.9,7.1-3.2,8.9-7c1.1-2.4,1.4-4.9,1.1-7.5C414,25.5,412.6,22.8,410.2,20.7z
          M406.8,34.5c-1.2,2.4-3.2,3.6-5.9,3.4c-2.6-0.1-4.3-1.5-5.2-3.9c-0.5-1.1-0.6-2.3-0.6-2.9c0-2.5,0.4-4.4,1.8-5.9
          c1.1-1.2,2.4-1.9,4.1-1.9c1.9-0.1,3.6,0.4,5,1.9c1.1,1.2,1.6,2.6,1.7,4.1C407.7,31.1,407.6,32.9,406.8,34.5z"/>
        <path d="M442.4,23.3c-2.5-4.3-7-6.2-11.8-5.5c-1.7,0.3-3.3,1-4.7,2.1c-0.2,0.2-0.4,0.2-0.6,0c-0.4-0.5-0.9-0.9-1.4-1.3
          c-0.3-0.2-0.7-0.4-1.1-0.4c-1.1,0-2.2,0-3.4,0c-0.3,0-0.4,0.1-0.4,0.4c0,0.1,0,0.3,0,0.4c0.5,1.9,0.6,3.8,0.6,5.7
          c0,4.9,0,9.8,0,14.7l0,0c0,5.2,0,10.3,0,15.5c0,0.5,0,0.6,0.5,0.6c1.8,0,3.6,0,5.3,0c0.7,0,0.7,0,0.7-0.6c0-3.7,0-7.5,0-11.2
          c0-0.5,0-0.5,0.5-0.4c2.6,0.7,5.2,0.7,7.8,0c3.8-1,6.7-3.1,8.3-6.7C445,32,444.9,27.5,442.4,23.3z M436.8,34c-1,2.5-3,3.7-5.6,4
          c-1.5,0.1-2.9-0.1-4.3-0.6c-0.3-0.1-0.4-0.3-0.4-0.6c0-2,0-3.9,0-5.9s0-3.9,0-5.9c0-0.3,0-0.4,0.3-0.6c2.1-1.4,5.8-1.6,8-0.1
          c1.4,1,2.2,2.4,2.5,4C437.5,30.3,437.5,32.2,436.8,34z"/>
        <path d="M268,30.8c-0.4-0.4-0.4-0.7,0-1.2c2.2-2.6,4.4-5.2,6.6-7.8c0.4-0.4,0.4-0.7,0.1-1.2c-1-1.3-2.2-2.3-3.6-3
          c-0.4-0.2-0.6-0.1-0.9,0.2c-1.5,1.8-3.1,3.6-4.6,5.3c-1.1,1.2-2.1,2.4-3.2,3.7c-0.5,0.6-1.2,0.6-1.8,0.5c-0.5-0.1-0.2-0.8-0.2-1.2
          c0-6.8,0-13.5,0-20.3c0-1.7-1.5-3.2-3.2-3.2c-1.4,0-2.9,0.1-4.3,0c-1.6-0.1-2.4,0.8-3.2,1.9c-0.2,0.3-0.3,0.7-0.2,1.1
          c0.5,1.2,1.9,2.2,3.2,2.2c1,0,1,0,1,1c0,5.5,0,11,0,16.5s0,11.1,0,16.6c0,1,0,1,1,1c1.6,0,3.1,0,4.7,0c1,0,1,0,1-1
          c0-2.7,0-5.4,0-8.1c0-0.3-0.1-0.6,0.2-0.8c0.4-0.3,1.4-0.2,1.8,0.3c2.8,3.2,5.6,6.5,8.4,9.7c0.3,0.4,0.7,0.5,1.1,0.2
          c1.4-0.8,2.6-1.9,3.6-3.2c0.3-0.4,0.3-0.8-0.1-1.2C272.8,36.4,270.5,33.6,268,30.8z"/>
        <path d="M291.6,17.5c-7.7,0-13.4,5.5-13.4,13.1s5.6,13.1,13.2,13.1c7.8,0,13.5-5.5,13.5-13
          C305,23.1,299.4,17.6,291.6,17.5z M297.3,34c-1,2.6-3,3.9-5.8,3.9c-3.3,0-5.7-2.3-6.1-5.8c-0.2-1.7-0.1-3.4,0.5-5
          c0.9-2.4,3-3.9,5.5-3.9c2.8,0,4.9,1.3,5.9,3.7C298.2,29.3,298.2,31.7,297.3,34z"/>
    </g>
  </symbol>
  <symbol viewBox="0 0 11 23" xmlns="http://www.w3.org/2000/svg" id="facebook">
    <path d="m7.31470568 23h-4.87746393v-11.5014517h-2.43724175v-3.96301434h2.43724175v-2.37926029c0-3.23283262 1.37546569-5.15627367 5.28578203-5.15627367h3.25462302v3.96446604h-2.03413938c-1.52225158 0-1.62284089.55380586-1.62284089 1.58738324l-.00670595 1.98368468h3.68603942l-.4314164 3.96301434h-3.25462302v11.5014517z" fill-rule="evenodd" transform=""/>
  </symbol>
  <symbol viewBox="0 0 20 20" xmlns="http://www.w3.org/2000/svg" id="instagram">
    <g fill="none" fill-rule="evenodd">
      <path d="m-371-1580h768v2045h-768z" fill="#fcfcfc"/>
      <path d="m0 0h768v495h-768z" fill="#f4f4f4" fill-rule="nonzero" transform="matrix(1 0 0 -1 -371 462)"/>
      <path d="m72.1347601 2h-12.2695202c-2.130762 0-3.8652399 1.73330198-3.8652399 3.86523989v12.26952021c0 2.1319379 1.7344779 3.8652399 3.8652399 3.8652399h12.2695202c2.130762 0 3.8652399-1.733302 3.8652399-3.8652399v-12.26952021c0-2.13193791-1.7344779-3.86523989-3.8652399-3.86523989zm1.1088899 2.30597366.4421449-.00235183v3.39016933l-3.3795861.01058325-.0117591-3.39016933zm-10.0976011 5.64087488c.639699-.88664158 1.6792098-1.46754468 2.8539511-1.46754468s2.2142521.5809031 2.8539511 1.46754468c.4174506.57855126.666745 1.28645346.666745 2.05315146 0 1.9402634-1.5792568 3.5195202-3.5206961 3.5195202-1.9402634 0-3.5195202-1.5792568-3.5195202-3.5195202 0-.766698.2492944-1.4746002.6655691-2.05315146zm10.9054563 8.18791156c0 1.0571496-.8595955 1.9167451-1.9167451 1.9167451h-12.2695202c-1.0571496 0-1.9167451-.8595955-1.9167451-1.9167451v-8.18791156h2.9868298c-.2587018.63499526-.4033397 1.32761056-.4033397 2.05315146 0 3.0150517 2.4529634 5.469191 5.4680151 5.469191 3.0162277 0 5.469191-2.4541393 5.469191-5.469191 0-.7255409-.1469897-1.4181562-.4033396-2.05315146h2.9856538z" fill="#000" transform="translate(-56 -2)"/>
    </g>
  </symbol>
</svg>
